HIERARCHY
ROOT root
{
	OFFSET 0.000000 0.000000 0.000000
	CHANNELS 6 Xposition Yposition Zposition Zrotation Yrotation Xrotation
	JOINT lhip
	{
		OFFSET 0.058581 -0.082280 -0.017664
		CHANNELS 3 Zrotation Yrotation Xrotation
		JOINT lknee
		{
			OFFSET 0.043451 -0.386469 0.008037
			CHANNELS 3 Zrotation Yrotation Xrotation
			JOINT lankle
			{
				OFFSET -0.014790 -0.426874 -0.037428
				CHANNELS 3 Zrotation Yrotation Xrotation
				JOINT ltoe
				{
					OFFSET 0.041054 -0.060286 0.122042
					CHANNELS 3 Zrotation Yrotation Xrotation
					End Site
					{
						OFFSET 0.000000 0.000000 0.000000
					}
				}
			}
		}
	}
	JOINT rhip
	{
		OFFSET -0.060310 -0.090513 -0.013543
		CHANNELS 3 Zrotation Yrotation Xrotation
		JOINT rknee
		{
			OFFSET -0.043257 -0.383688 -0.004843
			CHANNELS 3 Zrotation Yrotation Xrotation
			JOINT rankle
			{
				OFFSET 0.019056 -0.420046 -0.034562
				CHANNELS 3 Zrotation Yrotation Xrotation
				JOINT rtoe
				{
					OFFSET -0.034840 -0.062106 0.130323
					CHANNELS 3 Zrotation Yrotation Xrotation
					End Site
					{
						OFFSET 0.000000 0.000000 0.000000
					}
				}
			}
		}
	}
	JOINT lowerback
	{
		OFFSET 0.004439 0.124404 -0.038385
		CHANNELS 3 Zrotation Yrotation Xrotation
		JOINT upperback
		{
			OFFSET 0.004488 0.137956 0.026820
			CHANNELS 3 Zrotation Yrotation Xrotation
			JOINT chest
			{
				OFFSET -0.002265 0.056032 0.002855
				CHANNELS 3 Zrotation Yrotation Xrotation
				JOINT lowerneck
				{
					OFFSET -0.013390 0.211636 -0.033468
					CHANNELS 3 Zrotation Yrotation Xrotation
					JOINT upperneck
					{
						OFFSET 0.010113 0.088937 0.050410
						CHANNELS 3 Zrotation Yrotation Xrotation
						End Site
						{
							OFFSET 0.000000 0.000000 0.000000
						}
					}
				}
				JOINT lclavicle
				{
					OFFSET 0.071702 0.114000 -0.018898
					CHANNELS 3 Zrotation Yrotation Xrotation
					JOINT lshoulder
					{
						OFFSET 0.122921 0.045205 -0.019046
						CHANNELS 3 Zrotation Yrotation Xrotation
						JOINT lelbow
						{
							OFFSET 0.255332 -0.015649 -0.022946
							CHANNELS 3 Zrotation Yrotation Xrotation
							JOINT lwrist
							{
								OFFSET 0.265709 0.012698 -0.007375
								CHANNELS 3 Zrotation Yrotation Xrotation
								End Site
								{
									OFFSET 0.000000 0.000000 0.000000
								}
							}
						}
					}
				}
				JOINT rclavicle
				{
					OFFSET -0.082954 0.112472 -0.023707
					CHANNELS 3 Zrotation Yrotation Xrotation
					JOINT rshoulder
					{
						OFFSET -0.113228 0.046853 -0.008472
						CHANNELS 3 Zrotation Yrotation Xrotation
						JOINT relbow
						{
							OFFSET -0.260127 -0.014369 -0.031269
							CHANNELS 3 Zrotation Yrotation Xrotation
							JOINT rwrist
							{
								OFFSET -0.269108 0.006794 -0.006027
								CHANNELS 3 Zrotation Yrotation Xrotation
								End Site
								{
									OFFSET 0.000000 0.000000 0.000000
								}
							}
						}
					}
				}
			}
		}
	}
}
MOTION
Frames: 16
Frame Time: 0.033333
-0.240176 0.280101 0.993015 93.701057 0.685810 85.150501 -0.306707 -2.346521 1.807349 -5.289934 -12.434198 13.121905 5.454956 6.789637 -13.076339 0.000000 -0.000000 0.000000 0.006060 -1.742939 -3.174488 1.155385 -0.062600 20.130080 1.649187 -10.126949 -12.853353 0.000000 -0.000000 0.000000 -1.382295 1.190822 11.179276 3.897939 -2.474290 -1.201772 1.143630 -2.276901 -1.329827 1.487062 4.652292 -9.726011 -0.446577 -2.501335 8.543418 -25.496477 -1.244789 1.648361 -44.674595 -12.627743 7.618818 9.792443 -32.972107 4.294637 5.074950 -4.425899 -17.631181 31.999876 0.365855 2.286397 50.563201 0.399020 13.888224 -19.244245 32.738941 -10.026612 1.890494 8.840782 -21.601284 
-0.239855 0.280806 0.993345 93.489791 0.706403 85.237091 -0.338456 -2.425481 1.750809 -5.245405 -12.128724 13.125995 5.496203 6.740930 -13.054078 0.000000 -0.000000 0.000000 -0.014146 -1.744789 -3.179006 1.042385 -0.096743 20.049358 1.665573 -9.901645 -12.778972 0.000000 -0.000000 0.000000 -1.243986 1.173034 11.170759 3.805909 -2.396174 -1.111935 1.043951 -2.420133 -1.276697 1.502221 4.644957 -9.767770 -0.461318 -2.230942 8.707646 -25.838452 -0.797096 1.693735 -44.899906 -12.992706 7.788238 10.785905 -36.627113 3.203853 5.659550 -4.938226 -18.157470 31.738842 0.304316 1.877960 50.839929 0.745678 14.365730 -19.652384 34.528046 -9.948285 2.030195 8.466114 -20.572531 
-0.239654 0.282099 0.993072 93.494789 0.669787 85.378466 -0.511904 -2.598423 1.525515 -5.193508 -11.968233 13.300038 5.659346 6.750720 -13.175999 0.000000 -0.000000 0.000000 -0.141642 -1.646785 -3.399240 1.007749 -0.205780 20.201118 1.787870 -9.841412 -12.805607 0.000000 -0.000000 0.000000 -1.138062 1.054217 11.045637 3.743236 -2.316763 -1.137074 0.924552 -2.358987 -1.115245 1.449710 4.223773 -9.585820 -0.503457 -2.206588 8.777086 -26.065093 -0.475167 1.661573 -45.907441 -12.739577 8.637813 11.621917 -39.010070 3.306515 6.528327 -4.968815 -19.591279 31.590988 0.111833 1.829099 50.963249 1.078407 14.495764 -20.344868 36.152543 -10.859496 2.286465 7.132800 -20.046117 
-0.238497 0.283124 0.992678 93.328606 0.681644 85.282481 -0.538258 -2.727396 1.799800 -5.207422 -11.624770 13.176388 5.823777 6.649683 -13.279573 0.000000 -0.000000 0.000000 -0.197657 -1.618121 -3.246893 0.966811 -0.204914 20.266919 1.674171 -9.609927 -12.874511 0.000000 -0.000000 0.000000 -0.946580 1.019598 11.065281 3.572439 -2.184863 -0.865646 0.743337 -2.331971 -1.261081 1.560112 3.925211 -9.575527 -0.559798 -2.145940 9.020480 -26.561357 -0.100911 1.705817 -46.713193 -12.649376 9.117590 12.205095 -41.655963 3.380881 6.229047 -5.193740 -19.684235 31.600109 0.193399 2.054821 51.055411 1.278756 14.439855 -20.656030 36.593969 -11.079737 2.522681 7.688561 -19.641476 
-0.237010 0.284169 0.992458 93.151036 0.596944 85.091766 -0.691499 -2.531039 2.252715 -5.222945 -11.771232 12.929261 5.836313 6.737836 -13.307668 0.000000 -0.000000 0.000000 -0.273072 -1.299056 -3.046913 0.804264 -0.288742 20.448664 1.835799 -9.593705 -12.947505 0.000000 -0.000000 0.000000 -0.753591 0.811682 11.484355 3.249631 -1.825518 -0.986886 0.510876 -2.300095 -1.060847 1.771192 3.786051 -9.898041 -0.851382 -2.038520 9.253572 -27.136656 0.784094 0.973965 -47.564204 -12.209485 9.876229 11.430552 -43.485835 4.855687 5.941970 -5.326659 -18.996021 31.609068 -0.189595 1.405641 51.141921 1.369091 14.638315 -20.239241 36.832167 -10.972349 2.541503 7.476639 -19.675233 
-0.234533 0.284923 0.991918 92.939304 0.600654 85.065041 -0.696114 -2.526954 2.517251 -5.297259 -11.550605 12.839804 5.991213 6.734952 -13.406384 0.000000 -0.000000 0.000000 -0.268978 -1.310724 -2.903261 0.711700 -0.151394 20.482313 1.702822 -9.497031 -13.096539 0.000000 -0.000000 0.000000 -0.634017 0.864853 10.917996 3.078489 -1.639936 -0.491706 0.367402 -2.136748 -1.154306 1.718401 3.426578 -8.667591 -0.709012 -1.627447 9.138075 -27.987520 0.821258 1.668971 -48.381355 -11.553311 10.295869 11.695656 -44.437364 4.402881 6.262904 -5.093299 -19.075051 31.779346 -0.067534 1.989982 50.976330 1.121730 14.336477 -20.485618 36.961207 -11.622145 2.334929 7.355286 -19.824519 
-0.232545 0.285777 0.991543 93.001545 0.541600 85.070193 -0.803537 -2.641789 2.718974 -5.311386 -11.364213 12.682292 6.062534 6.704489 -13.437968 0.000000 -0.000000 0.000000 -0.413175 -1.278317 -2.785512 0.705760 -0.205919 20.531924 1.651949 -9.481088 -13.145793 0.000000 -0.000000 0.000000 -0.544385 0.770359 11.000386 2.902887 -1.486806 -0.449246 0.191067 -2.050244 -1.022659 1.828720 3.114588 -8.987097 -0.808044 -1.586405 9.328362 -28.631639 1.743317 1.805426 -49.467971 -11.288170 10.626407 10.964623 -44.853357 4.893741 5.603900 -5.867136 -20.894848 32.010515 -0.490182 1.876270 50.753192 0.920307 14.428879 -20.659755 37.618751 -12.312738 1.995136 7.573274 -20.321050 
-0.231038 0.286421 0.991492 92.964026 0.502469 85.195115 -0.852382 -2.663260 2.725062 -5.324588 -11.084522 12.487823 6.018250 6.518650 -13.369833 0.000000 -0.000000 0.000000 -0.473217 -1.129285 -3.022895 0.592411 -0.364649 20.893622 1.722742 -9.362704 -13.368956 0.000000 -0.000000 0.000000 -0.422067 0.672952 10.951787 2.702666 -1.259929 -0.354029 0.030226 -1.947348 -0.788925 1.900263 3.021034 -8.869145 -0.859185 -1.731523 9.081845 -28.918909 2.469384 1.702745 -50.838700 -11.552590 10.842211 10.228290 -44.172590 5.292913 4.040454 -6.962043 -22.628799 31.699366 -1.030540 1.904360 50.990381 1.100565 14.602597 -20.843141 38.596397 -12.578511 1.664871 7.574753 -21.880768 
-0.230498 0.286874 0.991707 93.114295 0.528546 85.211859 -0.793873 -2.534397 2.805170 -5.381779 -11.231393 12.215179 6.041357 6.442053 -13.141890 0.000000 -0.000000 0.000000 -0.454517 -1.039732 -3.045017 0.563339 -0.461717 20.928749 1.501996 -9.330354 -13.599270 0.000000 -0.000000 0.000000 -0.282156 0.579735 10.889418 2.537069 -1.293503 -0.109759 -0.045976 -2.033881 -0.558050 2.010487 2.757855 -8.411952 -0.901172 -1.572774 9.038338 -28.894215 1.965627 1.998426 -52.207139 -11.830528 11.159458 10.410407 -42.618332 5.379492 4.883718 -6.485605 -23.531727 31.157673 -0.430659 2.507180 51.276511 1.858639 14.761643 -21.173913 39.149104 -12.884860 0.466325 7.534541 -23.411772 
-0.230980 0.287484 0.992437 93.521389 0.579550 85.537652 -0.680537 -2.327758 2.312060 -5.434486 -11.379304 12.261235 6.058835 6.127131 -12.998818 0.000000 -0.000000 0.000000 -0.434655 -1.363300 -3.407255 0.514955 -0.572578 20.840696 1.613016 -9.344011 -13.466194 0.000000 -0.000000 0.000000 -0.142281 0.580807 11.501279 2.410470 -1.485983 -0.339897 0.135413 -2.002105 -0.775077 1.714763 2.053912 -8.461615 -0.587687 -1.439736 9.329948 -28.887702 0.584675 1.902835 -53.165264 -12.035708 11.385261 10.124464 -41.388656 5.405540 6.182817 -4.601431 -21.952991 30.499985 0.420750 2.211676 51.002317 2.138272 14.391416 -21.082551 40.711642 -12.917163 -0.016124 7.418338 -23.045275 
-0.233939 0.287879 0.993151 93.644851 0.519761 85.988580 -0.687947 -2.389718 1.678689 -5.396299 -11.226831 11.982504 6.004089 5.986863 -12.564697 0.000000 -0.000000 0.000000 -0.496001 -1.139054 -3.961621 0.426599 -0.928158 20.527306 1.539378 -9.313680 -13.073556 0.000000 -0.000000 0.000000 0.022630 0.466623 11.994297 2.281866 -1.725205 -0.682343 -0.013575 -2.120142 -0.684055 1.874993 2.303590 -8.025758 -0.739384 -1.786333 9.756577 -28.683016 -1.499525 2.187304 -53.335626 -13.585277 11.814859 10.526510 -39.373760 4.618074 8.644958 -4.180365 -22.514412 29.927610 2.134657 3.122269 50.754271 3.968913 15.085837 -22.395884 41.487698 -13.606211 -5.777553 5.932929 -24.783122 
-0.238034 0.287923 0.994058 93.890728 0.479279 86.708550 -0.683105 -2.333269 0.718189 -5.159468 -10.869825 11.694079 5.797775 5.220312 -12.045343 0.000000 -0.000000 0.000000 -0.538466 -1.258904 -4.958785 0.293770 -1.307095 20.332768 1.538284 -8.986180 -12.559132 0.000000 -0.000000 0.000000 0.076040 0.416210 12.617871 2.296531 -1.972902 -0.903080 0.038343 -2.170988 -0.706442 1.656258 2.500837 -8.188402 -0.579979 -1.641805 10.265967 -28.194433 -3.689324 1.741555 -53.545469 -15.869177 12.237410 11.193678 -37.847681 2.757350 8.963464 -4.220841 -22.327260 29.513716 3.707699 2.656774 49.749978 6.850559 14.993601 -22.959297 42.317958 -14.677946 -4.880897 6.817891 -24.573533 
-0.244500 0.287448 0.995398 93.743020 0.450478 87.728316 -0.636668 -2.341416 -0.749114 -5.045364 -10.459967 11.583348 5.466397 4.750304 -11.573241 0.000000 -0.000000 0.000000 -0.512609 -1.142245 -6.402827 0.103412 -1.698009 20.025449 1.606968 -8.592894 -11.907412 0.000000 -0.000000 0.000000 0.184481 0.414558 13.401458 2.329343 -2.131332 -1.174192 0.092172 -2.270185 -0.687774 1.598546 2.825637 -8.817968 -0.829004 -2.034591 10.941724 -27.326169 -6.169577 1.150282 -53.354735 -18.839268 12.507422 11.977433 -36.083055 1.616681 8.457549 -5.179121 -22.976980 28.849049 6.061949 2.300287 48.769332 10.918805 14.782630 -24.590549 42.437414 -16.338436 -3.788870 8.011680 -24.057044 
-0.251978 0.286937 0.996986 93.471982 0.466024 88.544143 -0.560966 -2.408081 -1.845774 -4.768514 -9.821695 11.084771 5.344524 4.289269 -10.875421 0.000000 -0.000000 0.000000 -0.443495 -0.970539 -7.618722 -0.045233 -2.057972 19.468574 1.316841 -8.083289 -11.004512 0.000000 -0.000000 0.000000 0.381533 0.397118 14.625194 2.263255 -2.346271 -1.259689 0.330114 -2.225709 -0.863587 1.203664 3.075433 -9.190784 -0.687006 -1.739239 11.020129 -25.931340 -9.462931 0.477195 -52.864606 -21.654318 12.552712 13.578861 -35.769731 -1.766480 9.778686 -3.044739 -21.478795 27.224510 9.249960 1.884843 48.099942 14.736018 14.453854 -26.381168 42.773835 -18.941018 -2.344713 7.770275 -23.806823 
-0.261573 0.286333 0.998830 93.286722 0.451343 89.799978 -0.494813 -2.524659 -3.788623 -4.619349 -9.420834 10.946668 4.929722 3.901200 -10.276083 0.000000 -0.000000 0.000000 -0.443779 -0.878579 -9.680618 -0.181619 -2.581385 19.331877 1.656101 -7.729470 -10.120187 0.000000 -0.000000 0.000000 0.625518 0.296149 16.173786 2.249745 -2.575036 -1.889458 0.540869 -2.060989 -0.914895 0.886932 3.474640 -9.763339 -0.610231 -1.871784 10.883455 -23.871782 -12.893483 -0.380708 -52.007284 -24.972583 12.462124 15.185329 -34.560288 -4.103577 10.988387 -4.109417 -23.332546 25.351865 12.219120 1.604403 46.801539 19.226374 13.673842 -27.934122 42.693226 -20.218203 -3.981312 8.401916 -24.516291 
-0.271184 0.286086 1.000302 92.821354 0.380969 91.102305 -0.415190 -2.370157 -5.395230 -4.419685 -8.857823 10.162974 4.569528 3.485178 -9.367698 0.000000 -0.000000 0.000000 -0.513656 -0.740621 -11.557829 -0.276481 -2.887054 18.735054 1.934230 -7.202596 -9.008862 0.000000 -0.000000 0.000000 0.926644 0.299336 17.872947 2.003874 -2.549139 -2.341432 0.845296 -1.786494 -1.273288 0.425862 3.436768 -10.204635 -0.288406 -1.617736 10.107866 -21.525239 -16.859449 -1.607400 -50.090986 -27.969943 11.729162 16.506638 -33.566504 -7.607948 11.260358 -3.756771 -23.681880 22.813073 16.091680 1.246039 44.894588 23.087075 12.486289 -30.071160 42.338019 -23.674319 -4.380584 8.096817 -24.472249 
